<svg>
<symbol id="logo" width="272" height="66" viewBox="0 0 272 66" fill="none" xmlns="http://www.w3.org/2000/svg">
<path d="M113.376 36.4688V39H104.798V36.4688H113.376ZM105.77 21.9375V39H102.548V21.9375H105.77ZM114.747 32.7891V32.543C114.747 31.6133 114.88 30.7578 115.145 29.9766C115.411 29.1875 115.798 28.5039 116.305 27.9258C116.813 27.3477 117.434 26.8984 118.169 26.5781C118.903 26.25 119.739 26.0859 120.677 26.0859C121.63 26.0859 122.473 26.25 123.208 26.5781C123.95 26.8984 124.575 27.3477 125.083 27.9258C125.591 28.5039 125.977 29.1875 126.243 29.9766C126.509 30.7578 126.641 31.6133 126.641 32.543V32.7891C126.641 33.7109 126.509 34.5664 126.243 35.3555C125.977 36.1367 125.591 36.8203 125.083 37.4062C124.575 37.9844 123.954 38.4336 123.22 38.7539C122.485 39.0742 121.645 39.2344 120.7 39.2344C119.762 39.2344 118.923 39.0742 118.18 38.7539C117.438 38.4336 116.813 37.9844 116.305 37.4062C115.798 36.8203 115.411 36.1367 115.145 35.3555C114.88 34.5664 114.747 33.7109 114.747 32.7891ZM117.841 32.543V32.7891C117.841 33.3438 117.895 33.8633 118.005 34.3477C118.114 34.832 118.282 35.2578 118.509 35.625C118.735 35.9922 119.028 36.2812 119.387 36.4922C119.755 36.6953 120.192 36.7969 120.7 36.7969C121.2 36.7969 121.63 36.6953 121.989 36.4922C122.348 36.2812 122.641 35.9922 122.868 35.625C123.102 35.2578 123.274 34.832 123.384 34.3477C123.493 33.8633 123.548 33.3438 123.548 32.7891V32.543C123.548 31.9961 123.493 31.4844 123.384 31.0078C123.274 30.5234 123.102 30.0977 122.868 29.7305C122.641 29.3555 122.345 29.0625 121.977 28.8516C121.618 28.6328 121.184 28.5234 120.677 28.5234C120.177 28.5234 119.747 28.6328 119.387 28.8516C119.028 29.0625 118.735 29.3555 118.509 29.7305C118.282 30.0977 118.114 30.5234 118.005 31.0078C117.895 31.4844 117.841 31.9961 117.841 32.543ZM136.954 26.3203H139.766V38.6133C139.766 39.7617 139.516 40.7344 139.016 41.5312C138.524 42.3359 137.833 42.9453 136.942 43.3594C136.052 43.7812 135.016 43.9922 133.837 43.9922C133.329 43.9922 132.778 43.9219 132.184 43.7812C131.598 43.6406 131.032 43.418 130.485 43.1133C129.946 42.8164 129.497 42.4297 129.137 41.9531L130.532 40.125C130.954 40.6172 131.43 40.9883 131.962 41.2383C132.493 41.4961 133.067 41.625 133.684 41.625C134.309 41.625 134.841 41.5078 135.278 41.2734C135.723 41.0469 136.063 40.7109 136.298 40.2656C136.54 39.8281 136.661 39.2891 136.661 38.6484V29.2148L136.954 26.3203ZM128.387 32.8125V32.5664C128.387 31.5977 128.505 30.7188 128.739 29.9297C128.973 29.1328 129.309 28.4492 129.747 27.8789C130.192 27.3086 130.727 26.8672 131.352 26.5547C131.985 26.2422 132.696 26.0859 133.485 26.0859C134.321 26.0859 135.024 26.2383 135.595 26.543C136.173 26.8477 136.649 27.2812 137.024 27.8438C137.407 28.4062 137.704 29.0742 137.915 29.8477C138.134 30.6133 138.302 31.457 138.419 32.3789V33.0469C138.309 33.9453 138.134 34.7695 137.891 35.5195C137.657 36.2695 137.345 36.9258 136.954 37.4883C136.563 38.043 136.079 38.4727 135.501 38.7773C134.923 39.082 134.243 39.2344 133.462 39.2344C132.68 39.2344 131.977 39.0742 131.352 38.7539C130.727 38.4336 130.192 37.9844 129.747 37.4062C129.309 36.8281 128.973 36.1484 128.739 35.3672C128.505 34.5859 128.387 33.7344 128.387 32.8125ZM131.481 32.5664V32.8125C131.481 33.3594 131.536 33.8711 131.645 34.3477C131.755 34.8242 131.923 35.2461 132.149 35.6133C132.376 35.9727 132.661 36.2539 133.005 36.457C133.348 36.6602 133.759 36.7617 134.235 36.7617C134.876 36.7617 135.399 36.6289 135.805 36.3633C136.22 36.0898 136.532 35.7188 136.743 35.25C136.962 34.7734 137.102 34.2383 137.165 33.6445V31.8047C137.126 31.3359 137.04 30.9023 136.907 30.5039C136.782 30.1055 136.606 29.7617 136.38 29.4727C136.153 29.1836 135.864 28.957 135.512 28.793C135.161 28.6289 134.743 28.5469 134.259 28.5469C133.79 28.5469 133.38 28.6523 133.028 28.8633C132.677 29.0664 132.387 29.3516 132.161 29.7188C131.934 30.0859 131.762 30.5117 131.645 30.9961C131.536 31.4805 131.481 32.0039 131.481 32.5664ZM154.098 36.4688V39H145.028V36.4688H154.098ZM146.012 21.9375V39H142.79V21.9375H146.012ZM152.915 28.9805V31.4531H145.028V28.9805H152.915ZM154.063 21.9375V24.4805H145.028V21.9375H154.063ZM163.473 36.3047V21H166.591V39H163.778L163.473 36.3047ZM155.329 32.8125V32.5664C155.329 31.5977 155.438 30.7188 155.657 29.9297C155.884 29.1328 156.212 28.4492 156.641 27.8789C157.071 27.3086 157.591 26.8672 158.2 26.5547C158.817 26.2422 159.516 26.0859 160.298 26.0859C161.055 26.0859 161.716 26.2383 162.278 26.543C162.848 26.8477 163.333 27.2812 163.731 27.8438C164.137 28.4062 164.462 29.0742 164.704 29.8477C164.946 30.6133 165.122 31.457 165.231 32.3789V33.0469C165.122 33.9453 164.946 34.7695 164.704 35.5195C164.462 36.2695 164.137 36.9258 163.731 37.4883C163.333 38.043 162.848 38.4727 162.278 38.7773C161.708 39.082 161.04 39.2344 160.274 39.2344C159.501 39.2344 158.805 39.0742 158.188 38.7539C157.579 38.4336 157.059 37.9844 156.63 37.4062C156.208 36.8281 155.884 36.1484 155.657 35.3672C155.438 34.5859 155.329 33.7344 155.329 32.8125ZM158.434 32.5664V32.8125C158.434 33.3594 158.481 33.8711 158.575 34.3477C158.669 34.8242 158.821 35.2461 159.032 35.6133C159.243 35.9727 159.512 36.2539 159.841 36.457C160.177 36.6602 160.583 36.7617 161.059 36.7617C161.669 36.7617 162.169 36.6289 162.559 36.3633C162.958 36.0898 163.266 35.7188 163.485 35.25C163.704 34.7734 163.845 34.2383 163.907 33.6445V31.8047C163.876 31.3359 163.794 30.9023 163.661 30.5039C163.536 30.1055 163.356 29.7617 163.122 29.4727C162.895 29.1836 162.614 28.957 162.278 28.793C161.942 28.6289 161.544 28.5469 161.083 28.5469C160.606 28.5469 160.2 28.6523 159.864 28.8633C159.528 29.0664 159.255 29.3516 159.044 29.7188C158.833 30.0859 158.677 30.5117 158.575 30.9961C158.481 31.4805 158.434 32.0039 158.434 32.5664ZM180.454 36.4688V39H171.876V36.4688H180.454ZM172.848 21.9375V39H169.626V21.9375H172.848ZM188.071 39.2344C187.11 39.2344 186.247 39.0781 185.481 38.7656C184.716 38.4531 184.063 38.0195 183.524 37.4648C182.993 36.9023 182.583 36.25 182.294 35.5078C182.012 34.7578 181.872 33.9531 181.872 33.0938V32.625C181.872 31.6484 182.012 30.7617 182.294 29.9648C182.575 29.1602 182.973 28.4688 183.489 27.8906C184.005 27.3125 184.622 26.8672 185.341 26.5547C186.059 26.2422 186.852 26.0859 187.72 26.0859C188.618 26.0859 189.411 26.2383 190.098 26.543C190.786 26.8398 191.36 27.2617 191.821 27.8086C192.282 28.3555 192.63 29.0117 192.864 29.7773C193.098 30.5352 193.216 31.375 193.216 32.2969V33.5977H183.278V31.4648H190.169V31.2305C190.153 30.7383 190.059 30.2891 189.887 29.8828C189.716 29.4688 189.45 29.1406 189.091 28.8984C188.731 28.6484 188.266 28.5234 187.696 28.5234C187.235 28.5234 186.833 28.625 186.489 28.8281C186.153 29.0234 185.872 29.3047 185.645 29.6719C185.427 30.0312 185.262 30.4609 185.153 30.9609C185.044 31.4609 184.989 32.0156 184.989 32.625V33.0938C184.989 33.625 185.059 34.1172 185.2 34.5703C185.348 35.0234 185.563 35.418 185.845 35.7539C186.134 36.082 186.477 36.3398 186.876 36.5273C187.282 36.707 187.743 36.7969 188.259 36.7969C188.907 36.7969 189.493 36.6719 190.016 36.4219C190.548 36.1641 191.009 35.7852 191.399 35.2852L192.958 36.9023C192.692 37.293 192.333 37.668 191.88 38.0273C191.434 38.3867 190.895 38.6797 190.262 38.9062C189.63 39.125 188.899 39.2344 188.071 39.2344ZM202.262 35.5312C202.262 35.2656 202.192 35.0273 202.052 34.8164C201.911 34.6055 201.645 34.4141 201.255 34.2422C200.872 34.0625 200.309 33.8945 199.567 33.7383C198.911 33.5977 198.305 33.4219 197.751 33.2109C197.196 33 196.72 32.7461 196.321 32.4492C195.923 32.1445 195.61 31.7891 195.384 31.3828C195.165 30.9688 195.055 30.4922 195.055 29.9531C195.055 29.4297 195.169 28.9375 195.395 28.4766C195.622 28.0078 195.95 27.5977 196.38 27.2461C196.809 26.8867 197.333 26.6055 197.95 26.4023C198.567 26.1914 199.262 26.0859 200.036 26.0859C201.114 26.0859 202.04 26.2617 202.813 26.6133C203.595 26.9648 204.192 27.4492 204.606 28.0664C205.02 28.6758 205.227 29.3633 205.227 30.1289H202.134C202.134 29.793 202.055 29.4883 201.899 29.2148C201.751 28.9414 201.52 28.7227 201.208 28.5586C200.895 28.3867 200.501 28.3008 200.024 28.3008C199.595 28.3008 199.231 28.3711 198.934 28.5117C198.645 28.6523 198.427 28.8359 198.278 29.0625C198.13 29.2891 198.055 29.5391 198.055 29.8125C198.055 30.0156 198.095 30.1992 198.173 30.3633C198.259 30.5195 198.395 30.6641 198.583 30.7969C198.77 30.9297 199.024 31.0508 199.345 31.1602C199.673 31.2695 200.075 31.375 200.552 31.4766C201.497 31.6641 202.321 31.9141 203.024 32.2266C203.735 32.5312 204.29 32.9375 204.688 33.4453C205.087 33.9531 205.286 34.6016 205.286 35.3906C205.286 35.9531 205.165 36.4688 204.923 36.9375C204.68 37.3984 204.329 37.8008 203.868 38.1445C203.407 38.4883 202.856 38.7578 202.216 38.9531C201.575 39.1406 200.852 39.2344 200.048 39.2344C198.884 39.2344 197.899 39.0273 197.095 38.6133C196.29 38.1914 195.68 37.6602 195.266 37.0195C194.852 36.3711 194.645 35.6992 194.645 35.0039H197.61C197.634 35.4961 197.766 35.8906 198.009 36.1875C198.251 36.4844 198.555 36.6992 198.923 36.832C199.298 36.957 199.692 37.0195 200.106 37.0195C200.575 37.0195 200.97 36.957 201.29 36.832C201.61 36.6992 201.852 36.5234 202.016 36.3047C202.18 36.0781 202.262 35.8203 202.262 35.5312ZM214.614 35.5312C214.614 35.2656 214.544 35.0273 214.403 34.8164C214.262 34.6055 213.997 34.4141 213.606 34.2422C213.223 34.0625 212.661 33.8945 211.919 33.7383C211.262 33.5977 210.657 33.4219 210.102 33.2109C209.548 33 209.071 32.7461 208.673 32.4492C208.274 32.1445 207.962 31.7891 207.735 31.3828C207.516 30.9688 207.407 30.4922 207.407 29.9531C207.407 29.4297 207.52 28.9375 207.747 28.4766C207.973 28.0078 208.302 27.5977 208.731 27.2461C209.161 26.8867 209.684 26.6055 210.302 26.4023C210.919 26.1914 211.614 26.0859 212.387 26.0859C213.466 26.0859 214.391 26.2617 215.165 26.6133C215.946 26.9648 216.544 27.4492 216.958 28.0664C217.372 28.6758 217.579 29.3633 217.579 30.1289H214.485C214.485 29.793 214.407 29.4883 214.251 29.2148C214.102 28.9414 213.872 28.7227 213.559 28.5586C213.247 28.3867 212.852 28.3008 212.376 28.3008C211.946 28.3008 211.583 28.3711 211.286 28.5117C210.997 28.6523 210.778 28.8359 210.63 29.0625C210.481 29.2891 210.407 29.5391 210.407 29.8125C210.407 30.0156 210.446 30.1992 210.524 30.3633C210.61 30.5195 210.747 30.6641 210.934 30.7969C211.122 30.9297 211.376 31.0508 211.696 31.1602C212.024 31.2695 212.427 31.375 212.903 31.4766C213.848 31.6641 214.673 31.9141 215.376 32.2266C216.087 32.5312 216.641 32.9375 217.04 33.4453C217.438 33.9531 217.637 34.6016 217.637 35.3906C217.637 35.9531 217.516 36.4688 217.274 36.9375C217.032 37.3984 216.68 37.8008 216.22 38.1445C215.759 38.4883 215.208 38.7578 214.567 38.9531C213.927 39.1406 213.204 39.2344 212.399 39.2344C211.235 39.2344 210.251 39.0273 209.446 38.6133C208.641 38.1914 208.032 37.6602 207.618 37.0195C207.204 36.3711 206.997 35.6992 206.997 35.0039H209.962C209.985 35.4961 210.118 35.8906 210.36 36.1875C210.602 36.4844 210.907 36.6992 211.274 36.832C211.649 36.957 212.044 37.0195 212.458 37.0195C212.927 37.0195 213.321 36.957 213.641 36.832C213.962 36.6992 214.204 36.5234 214.368 36.3047C214.532 36.0781 214.614 35.8203 214.614 35.5312ZM219.442 32.7891V32.543C219.442 31.6133 219.575 30.7578 219.841 29.9766C220.106 29.1875 220.493 28.5039 221.001 27.9258C221.509 27.3477 222.13 26.8984 222.864 26.5781C223.598 26.25 224.434 26.0859 225.372 26.0859C226.325 26.0859 227.169 26.25 227.903 26.5781C228.645 26.8984 229.27 27.3477 229.778 27.9258C230.286 28.5039 230.673 29.1875 230.938 29.9766C231.204 30.7578 231.337 31.6133 231.337 32.543V32.7891C231.337 33.7109 231.204 34.5664 230.938 35.3555C230.673 36.1367 230.286 36.8203 229.778 37.4062C229.27 37.9844 228.649 38.4336 227.915 38.7539C227.18 39.0742 226.341 39.2344 225.395 39.2344C224.458 39.2344 223.618 39.0742 222.876 38.7539C222.134 38.4336 221.509 37.9844 221.001 37.4062C220.493 36.8203 220.106 36.1367 219.841 35.3555C219.575 34.5664 219.442 33.7109 219.442 32.7891ZM222.536 32.543V32.7891C222.536 33.3438 222.591 33.8633 222.7 34.3477C222.809 34.832 222.977 35.2578 223.204 35.625C223.43 35.9922 223.723 36.2812 224.083 36.4922C224.45 36.6953 224.887 36.7969 225.395 36.7969C225.895 36.7969 226.325 36.6953 226.684 36.4922C227.044 36.2812 227.337 35.9922 227.563 35.625C227.798 35.2578 227.97 34.832 228.079 34.3477C228.188 33.8633 228.243 33.3438 228.243 32.7891V32.543C228.243 31.9961 228.188 31.4844 228.079 31.0078C227.97 30.5234 227.798 30.0977 227.563 29.7305C227.337 29.3555 227.04 29.0625 226.673 28.8516C226.313 28.6328 225.88 28.5234 225.372 28.5234C224.872 28.5234 224.442 28.6328 224.083 28.8516C223.723 29.0625 223.43 29.3555 223.204 29.7305C222.977 30.0977 222.809 30.5234 222.7 31.0078C222.591 31.4844 222.536 31.9961 222.536 32.543ZM236.622 29.0273V39H233.528V26.3203H236.434L236.622 29.0273ZM236.13 32.2031H235.216C235.223 31.2812 235.348 30.4453 235.591 29.6953C235.833 28.9453 236.173 28.3008 236.61 27.7617C237.055 27.2227 237.583 26.8086 238.192 26.5195C238.802 26.2305 239.481 26.0859 240.231 26.0859C240.841 26.0859 241.391 26.1719 241.884 26.3438C242.376 26.5156 242.798 26.7891 243.149 27.1641C243.509 27.5391 243.782 28.0312 243.97 28.6406C244.165 29.2422 244.262 29.9844 244.262 30.8672V39H241.145V30.8438C241.145 30.2656 241.059 29.8086 240.887 29.4727C240.723 29.1367 240.481 28.8984 240.161 28.7578C239.848 28.6172 239.462 28.5469 239.001 28.5469C238.524 28.5469 238.106 28.6445 237.747 28.8398C237.395 29.0273 237.098 29.2891 236.856 29.625C236.622 29.9609 236.442 30.3477 236.317 30.7852C236.192 31.2227 236.13 31.6953 236.13 32.2031ZM253.966 35.5312C253.966 35.2656 253.895 35.0273 253.755 34.8164C253.614 34.6055 253.348 34.4141 252.958 34.2422C252.575 34.0625 252.012 33.8945 251.27 33.7383C250.614 33.5977 250.009 33.4219 249.454 33.2109C248.899 33 248.423 32.7461 248.024 32.4492C247.626 32.1445 247.313 31.7891 247.087 31.3828C246.868 30.9688 246.759 30.4922 246.759 29.9531C246.759 29.4297 246.872 28.9375 247.098 28.4766C247.325 28.0078 247.653 27.5977 248.083 27.2461C248.512 26.8867 249.036 26.6055 249.653 26.4023C250.27 26.1914 250.966 26.0859 251.739 26.0859C252.817 26.0859 253.743 26.2617 254.516 26.6133C255.298 26.9648 255.895 27.4492 256.309 28.0664C256.723 28.6758 256.93 29.3633 256.93 30.1289H253.837C253.837 29.793 253.759 29.4883 253.602 29.2148C253.454 28.9414 253.223 28.7227 252.911 28.5586C252.598 28.3867 252.204 28.3008 251.727 28.3008C251.298 28.3008 250.934 28.3711 250.637 28.5117C250.348 28.6523 250.13 28.8359 249.981 29.0625C249.833 29.2891 249.759 29.5391 249.759 29.8125C249.759 30.0156 249.798 30.1992 249.876 30.3633C249.962 30.5195 250.098 30.6641 250.286 30.7969C250.473 30.9297 250.727 31.0508 251.048 31.1602C251.376 31.2695 251.778 31.375 252.255 31.4766C253.2 31.6641 254.024 31.9141 254.727 32.2266C255.438 32.5312 255.993 32.9375 256.391 33.4453C256.79 33.9531 256.989 34.6016 256.989 35.3906C256.989 35.9531 256.868 36.4688 256.626 36.9375C256.384 37.3984 256.032 37.8008 255.571 38.1445C255.11 38.4883 254.559 38.7578 253.919 38.9531C253.278 39.1406 252.555 39.2344 251.751 39.2344C250.587 39.2344 249.602 39.0273 248.798 38.6133C247.993 38.1914 247.384 37.6602 246.97 37.0195C246.555 36.3711 246.348 35.6992 246.348 35.0039H249.313C249.337 35.4961 249.47 35.8906 249.712 36.1875C249.954 36.4844 250.259 36.6992 250.626 36.832C251.001 36.957 251.395 37.0195 251.809 37.0195C252.278 37.0195 252.673 36.957 252.993 36.832C253.313 36.6992 253.555 36.5234 253.72 36.3047C253.884 36.0781 253.966 35.8203 253.966 35.5312Z" fill="black"/>
<path d="M0 14.8796H35.7994L38.5532 20.9851H2.7538L0 14.8796ZM3.67174 27.0907H39.4712L42.225 33.1962H6.42554L3.67174 27.0907ZM63.3374 59.6536C66.385 59.6536 68.845 56.9265 68.845 53.5481C68.845 50.1697 66.385 47.4425 63.3374 47.4425C60.2899 47.4425 57.8298 50.1697 57.8298 53.5481C57.8298 56.9265 60.2899 59.6536 63.3374 59.6536ZM68.845 23.0203H59.6657V33.1962H76.0416L68.845 23.0203ZM26.6201 59.6536C29.6676 59.6536 32.1277 56.9265 32.1277 53.5481C32.1277 50.1697 29.6676 47.4425 26.6201 47.4425C23.5725 47.4425 21.1125 50.1697 21.1125 53.5481C21.1125 56.9265 23.5725 59.6536 26.6201 59.6536ZM70.6809 16.9148L81.6961 33.1962V53.5481H74.3526C74.3526 60.3049 69.4325 65.7592 63.3374 65.7592C57.2424 65.7592 52.3222 60.3049 52.3222 53.5481H37.6353C37.6353 60.3049 32.6784 65.7592 26.6201 65.7592C20.525 65.7592 15.6049 60.3049 15.6049 53.5481H8.2614V39.3018H15.6049V45.4073H18.3954C20.4148 42.9244 23.3522 41.337 26.6201 41.337C29.8879 41.337 32.8253 42.9244 34.8448 45.4073H52.3222V8.77403H8.2614C8.2614 4.25593 11.5292 0.633301 15.6049 0.633301H59.6657V16.9148H70.6809Z" fill="black"/>
</symbol>

</svg>